<svg width="16.000000" height="16.000000" viewBox="0 0 16 16" fill="none" xmlns="http://www.w3.org/2000/svg" xmlns:xlink="http://www.w3.org/1999/xlink">
	<desc>
			Created with Pixso.
	</desc>
	<defs>
		<clipPath id="clip3_742">
			<rect id="fmd_good_black_24dp 1" rx="0.000000" width="15.000000" height="15.000000" transform="translate(0.500000 0.500000)" fill="white" fill-opacity="0"/>
		</clipPath>
	</defs>
	<rect id="fmd_good_black_24dp 1" rx="0.000000" width="15.000000" height="15.000000" transform="translate(0.500000 0.500000)" fill="#FFFFFF" fill-opacity="0"/>
	<g clip-path="url(#clip3_742)">
		<path id="Vector" d="M8 1.33C5.2 1.33 2.66 3.48 2.66 6.8C2.66 9.01 4.44 11.63 8 14.66C11.55 11.63 13.33 9.01 13.33 6.8C13.33 3.48 10.8 1.33 8 1.33ZM8 8C7.26 8 6.66 7.4 6.66 6.66C6.66 5.93 7.26 5.33 8 5.33C8.73 5.33 9.33 5.93 9.33 6.66C9.33 7.4 8.73 8 8 8Z" fill="#FFFFFF" fill-opacity="1.000000" fill-rule="nonzero"/>
	</g>
</svg>
